<?xml version="1.0" encoding="UTF-8" standalone="no"?>
<!DOCTYPE svg PUBLIC "-//W3C//DTD SVG 1.1//EN"
 "http://www.w3.org/Graphics/SVG/1.1/DTD/svg11.dtd">
<!-- Generated by graphviz version 2.43.0 (0)
 -->
<!-- Title: G Pages: 1 -->
<svg width="454pt" height="152pt"
 viewBox="0.00 0.00 454.00 152.00" xmlns="http://www.w3.org/2000/svg" xmlns:xlink="http://www.w3.org/1999/xlink">
<g id="graph0" class="graph" transform="scale(1 1) rotate(0) translate(4 148)">
<title>G</title>
<polygon fill="white" stroke="transparent" points="-4,4 -4,-148 450,-148 450,4 -4,4"/>
<!-- data.docker_image.nginx -->
<g id="node1" class="node">
<title>data.docker_image.nginx</title>
<polygon fill="none" stroke="black" points="201.5,-144 10.5,-144 10.5,-108 201.5,-108 201.5,-144"/>
<text text-anchor="middle" x="106" y="-122.3" font-family="sans-serif" font-size="14.00">data.docker_image.nginx</text>
</g>
<!-- data.docker_image.postgres -->
<g id="node2" class="node">
<title>data.docker_image.postgres</title>
<polygon fill="none" stroke="black" points="212,-36 0,-36 0,0 212,0 212,-36"/>
<text text-anchor="middle" x="106" y="-14.3" font-family="sans-serif" font-size="14.00">data.docker_image.postgres</text>
</g>
<!-- docker_container.nginx -->
<g id="node3" class="node">
<title>docker_container.nginx</title>
<polygon fill="none" stroke="black" points="435.5,-117 258.5,-117 258.5,-81 435.5,-81 435.5,-117"/>
<text text-anchor="middle" x="347" y="-95.3" font-family="sans-serif" font-size="14.00">docker_container.nginx</text>
</g>
<!-- docker_container.nginx&#45;&gt;data.docker_image.nginx -->
<g id="edge1" class="edge">
<title>docker_container.nginx&#45;&gt;data.docker_image.nginx</title>
<path fill="none" stroke="black" d="M258.36,-108.9C243.28,-110.6 227.47,-112.39 211.99,-114.14"/>
<polygon fill="black" stroke="black" points="211.42,-110.68 201.87,-115.28 212.2,-117.64 211.42,-110.68"/>
</g>
<!-- docker_network.app -->
<g id="node5" class="node">
<title>docker_network.app</title>
<polygon fill="none" stroke="black" points="184.5,-90 27.5,-90 27.5,-54 184.5,-54 184.5,-90"/>
<text text-anchor="middle" x="106" y="-68.3" font-family="sans-serif" font-size="14.00">docker_network.app</text>
</g>
<!-- docker_container.nginx&#45;&gt;docker_network.app -->
<g id="edge2" class="edge">
<title>docker_container.nginx&#45;&gt;docker_network.app</title>
<path fill="none" stroke="black" d="M258.36,-89.1C237.64,-86.76 215.54,-84.26 194.81,-81.92"/>
<polygon fill="black" stroke="black" points="195.08,-78.43 184.75,-80.78 194.3,-85.38 195.08,-78.43"/>
</g>
<!-- docker_container.postgres -->
<g id="node4" class="node">
<title>docker_container.postgres</title>
<polygon fill="none" stroke="black" points="446,-36 248,-36 248,0 446,0 446,-36"/>
<text text-anchor="middle" x="347" y="-14.3" font-family="sans-serif" font-size="14.00">docker_container.postgres</text>
</g>
<!-- docker_container.postgres&#45;&gt;data.docker_image.postgres -->
<g id="edge3" class="edge">
<title>docker_container.postgres&#45;&gt;data.docker_image.postgres</title>
<path fill="none" stroke="black" d="M247.75,-18C239.43,-18 230.95,-18 222.51,-18"/>
<polygon fill="black" stroke="black" points="222.23,-14.5 212.23,-18 222.23,-21.5 222.23,-14.5"/>
</g>
<!-- docker_container.postgres&#45;&gt;docker_network.app -->
<g id="edge4" class="edge">
<title>docker_container.postgres&#45;&gt;docker_network.app</title>
<path fill="none" stroke="black" d="M266.08,-36.06C243.17,-41.23 218.06,-46.91 194.7,-52.18"/>
<polygon fill="black" stroke="black" points="193.79,-48.8 184.81,-54.42 195.34,-55.63 193.79,-48.8"/>
</g>
</g>
</svg>
